<svg xmlns="http://www.w3.org/2000/svg" xmlns:xlink="http://www.w3.org/1999/xlink" width="32" height="32" viewBox="0 0 32 32">
  <defs>
    <clipPath id="clip-arrow_2">
      <rect width="32" height="32"/>
    </clipPath>
  </defs>
  <g id="arrow_2" data-name="arrow – 2" clip-path="url(#clip-arrow_2)">
    <path id="Subtraction_1" data-name="Subtraction 1" d="M-13786-6598a15.893,15.893,0,0,1-11.313-4.687A15.894,15.894,0,0,1-13802-6614a15.9,15.9,0,0,1,4.686-11.316A15.9,15.9,0,0,1-13786-6630a15.9,15.9,0,0,1,11.316,4.687A15.9,15.9,0,0,1-13770-6614a15.89,15.89,0,0,1-4.687,11.313A15.9,15.9,0,0,1-13786-6598Zm-3.371-24.531a1.455,1.455,0,0,0-1.034.426,1.459,1.459,0,0,0-.435,1.05,1.417,1.417,0,0,0,.435,1.015l6.21,6.155-6.058,6.152a1.449,1.449,0,0,0-.432,1.031,1.464,1.464,0,0,0,.432,1.041,1.467,1.467,0,0,0,1.032.423,1.456,1.456,0,0,0,1.035-.43l7.133-7.156a1.449,1.449,0,0,0-.046-2.016l-7.235-7.264A1.465,1.465,0,0,0-13789.373-6622.53Z" transform="translate(13802 6630)" fill="#844d26"/>
  </g>
</svg>
