<svg id="圖層_1" data-name="圖層 1" xmlns="http://www.w3.org/2000/svg" viewBox="0 0 69 8.75"><defs><style>.cls-1{font-size:8.7px;font-family:FelixTitlingMT, Felix Titling;letter-spacing:0.2em;}.cls-1,.cls-4{fill:#956134;}.cls-2{letter-spacing:0.08em;}.cls-3{letter-spacing:0.19em;}</style></defs><title>logo_sall</title><text class="cls-1" transform="translate(0 7.29)">A<tspan class="cls-2" x="7.72" y="0">R</tspan><tspan x="15.26" y="0" xml:space="preserve">U   DE</tspan><tspan class="cls-3" x="51.86" y="0">C</tspan><tspan x="60.19" y="0">O</tspan></text><path class="cls-4" d="M30.68,4.13h0Z"/><path class="cls-4" d="M30.68,4.12v0Z"/><path class="cls-4" d="M30.68,4.15h0Z"/><path class="cls-4" d="M30.65,4.1h0Z"/><path class="cls-4" d="M30.68,4.14a0,0,0,0,1,0,0h0l-.07,0-.07,0,.14,0h0v0Z"/><path class="cls-4" d="M27.3,4.14a2.54,2.54,0,0,0,1.6-1.81,2.54,2.54,0,0,0,1.6,1.81,2.52,2.52,0,0,0-1.6,1.81A2.52,2.52,0,0,0,27.3,4.14Z"/><path class="cls-4" d="M30.49,4.14a2.54,2.54,0,0,1-1.6-1.81,1.6,1.6,0,0,0,0-.17h0A2.52,2.52,0,0,0,30.64,4.1h0Z"/><path class="cls-4" d="M30.56,4.16A2.5,2.5,0,0,0,28.92,6l0-.08a2.52,2.52,0,0,1,1.6-1.81Z"/><path class="cls-4" d="M30.64,4.18a2.52,2.52,0,0,0-1.71,1.95h0l0-.09a2.5,2.5,0,0,1,1.65-1.87l.07,0Z"/><path class="cls-4" d="M28.94,2.14h0Z"/><path class="cls-4" d="M28.92,6.15v0Z"/><path class="cls-4" d="M28.92,2.13h0Z"/><path class="cls-4" d="M28.92,2.12h0Z"/><path class="cls-4" d="M28.89,2.11h0Z"/><path class="cls-4" d="M28.89,6.16h0a0,0,0,0,1,0,0h0s0-.07,0-.17l0,.08,0,.09h0v0Z"/><path class="cls-4" d="M28.86,2.13h.07a1.6,1.6,0,0,1,0,.17c0-.1,0-.16,0-.17h0A0,0,0,0,1,28.86,2.13Z"/><path class="cls-4" d="M28.86,2.13a0,0,0,0,0,0,0h0Z"/><path class="cls-4" d="M28.86,6.12a2.53,2.53,0,0,0-1.71-1.94h0l.14,0a2.52,2.52,0,0,1,1.6,1.81c0,.1,0,.16,0,.17Z"/><path class="cls-4" d="M28.89,2.33a2.54,2.54,0,0,1-1.6,1.81l-.14,0h0a2.53,2.53,0,0,0,1.71-1.95h0S28.87,2.23,28.89,2.33Z"/><path class="cls-4" d="M27.15,4.1h0Z"/><path class="cls-4" d="M27.16,4.1l.14,0-.14,0h0a0,0,0,0,1,0,0,0,0,0,0,1,0,0h0Z"/><path class="cls-4" d="M27.12,4.12a0,0,0,0,0,0,0h0Z"/></svg>