<svg xmlns="http://www.w3.org/2000/svg" xmlns:xlink="http://www.w3.org/1999/xlink" width="70" height="70" viewBox="0 0 70 70">
  <defs>
    <clipPath id="clip-messenger_icon">
      <rect width="70" height="70"/>
    </clipPath>
  </defs>
  <g id="messenger_icon" clip-path="url(#clip-messenger_icon)">
    <path id="Icon_simple-messenger" data-name="Icon simple-messenger" d="M0,33.949C0,14.437,15.284,0,35,0S70,14.437,70,33.949,54.717,67.9,35,67.9A38.2,38.2,0,0,1,24.88,66.557a2.8,2.8,0,0,0-1.867.146l-6.971,3.062a2.8,2.8,0,0,1-3.937-2.479l-.2-6.242a2.829,2.829,0,0,0-.933-1.983A33.22,33.22,0,0,1,0,33.949Zm24.266-6.387L14,43.895a1.643,1.643,0,0,0,2.392,2.187l11.054-8.371a2.058,2.058,0,0,1,2.537,0l8.167,6.125a5.265,5.265,0,0,0,7.583-1.4L56,26.1a1.645,1.645,0,0,0-2.392-2.187L42.555,32.287a2.016,2.016,0,0,1-2.508,0L31.88,26.162a5.25,5.25,0,0,0-7.612,1.4Z" fill="rgba(173,112,60,0.77)"/>
  </g>
</svg>
