<svg xmlns="http://www.w3.org/2000/svg" xmlns:xlink="http://www.w3.org/1999/xlink" width="110" height="40" viewBox="0 0 110 40">
  <defs>
    <clipPath id="clip-smalldevice_logo">
      <rect width="110" height="40"/>
    </clipPath>
  </defs>
  <g id="smalldevice_logo" clip-path="url(#clip-smalldevice_logo)">
    <g id="Group_2" data-name="Group 2" transform="translate(50.491 17.311)">
      <g id="Group_1" data-name="Group 1" transform="translate(0 0)">
        <path id="Path_1" data-name="Path 1" d="M923.722,616.778a1.332,1.332,0,0,1-.188-.049,1.285,1.285,0,0,1,.335-.1h.019a.038.038,0,0,1,.03.01c.01,0,.01,0,.02.01s.01,0,.01.01a.051.051,0,0,1,.02.039.037.037,0,0,1,.01.03.094.094,0,0,1-.069.088h-.04A.815.815,0,0,1,923.722,616.778Z" transform="translate(-915.625 -611.994)" fill="#956134"/>
        <path id="Path_2" data-name="Path 2" d="M924.12,616.731v.021a.037.037,0,0,0-.01-.03Z" transform="translate(-915.767 -612.016)" fill="#956134"/>
        <path id="Path_3" data-name="Path 3" d="M924.071,616.656l.01.01C924.081,616.656,924.081,616.656,924.071,616.656Z" transform="translate(-915.758 -612)" fill="#956134"/>
        <path id="Path_4" data-name="Path 4" d="M924.025,616.63l.01.01a.039.039,0,0,0-.03-.01Z" transform="translate(-915.742 -611.994)" fill="#956134"/>
        <path id="Path_5" data-name="Path 5" d="M922.667,615.146h-.019a1.3,1.3,0,0,0-.335.1c-2.515-.7-3.461-3.284-3.727-4.251.059-.227.089-.365.089-.374C918.762,610.985,919.581,614.5,922.667,615.146Z" transform="translate(-914.404 -610.51)" fill="#956134"/>
        <path id="Path_6" data-name="Path 6" d="M922.664,616.865h.02c-3.116.661-3.925,4.231-3.993,4.546v-.02s-.011-.068-.04-.187c.2-.8,1.1-3.718,3.866-4.378A.823.823,0,0,0,922.664,616.865Z" transform="translate(-914.42 -612.042)" fill="#956134"/>
        <path id="Path_7" data-name="Path 7" d="M922.312,616.761a1.328,1.328,0,0,0,.188.049c-2.771.661-3.669,3.58-3.866,4.378-.01-.049-.029-.109-.049-.187C918.851,620.035,919.8,617.461,922.312,616.761Z" transform="translate(-914.404 -612.026)" fill="#956134"/>
        <path id="Path_8" data-name="Path 8" d="M917.364,611.117c.266.967,1.212,3.55,3.727,4.251-2.515.7-3.461,3.274-3.727,4.24-.277-.966-1.214-3.541-3.728-4.24C916.15,614.667,917.087,612.084,917.364,611.117Z" transform="translate(-913.182 -610.633)" fill="#956134"/>
        <path id="Path_9" data-name="Path 9" d="M918.6,622.578c.029.119.04.188.04.188v.04a.076.076,0,0,1-.02.039l-.059.029-.01.01c-.01,0-.01-.01-.019-.01a.1.1,0,0,1-.079-.089v-.019a3.487,3.487,0,0,1,.1-.374C918.572,622.469,918.592,622.529,918.6,622.578Z" transform="translate(-914.371 -613.416)" fill="#956134"/>
        <path id="Path_10" data-name="Path 10" d="M918.641,610.555v.029c0,.01-.03.148-.089.374a3.453,3.453,0,0,1-.1-.374.066.066,0,0,1,.029-.079.051.051,0,0,1,.039-.02l.011-.01A.1.1,0,0,1,918.641,610.555Z" transform="translate(-914.37 -610.474)" fill="#956134"/>
        <path id="Path_11" data-name="Path 11" d="M918.595,623.022l.059-.029a.1.1,0,0,1-.069.039Z" transform="translate(-914.404 -613.564)" fill="#956134"/>
        <path id="Path_12" data-name="Path 12" d="M918.532,610.489a.052.052,0,0,0-.039.02A.052.052,0,0,1,918.532,610.489Z" transform="translate(-914.381 -610.478)" fill="#956134"/>
        <path id="Path_13" data-name="Path 13" d="M918.454,622.914a.1.1,0,0,0,.079.089.1.1,0,0,1-.079-.069Z" transform="translate(-914.371 -613.545)" fill="#956134"/>
        <path id="Path_14" data-name="Path 14" d="M917.148,610.62a3.439,3.439,0,0,0,.1.374c-.276.967-1.213,3.55-3.727,4.251a1.311,1.311,0,0,0-.336-.1h-.02C916.251,614.5,917.059,610.985,917.148,610.62Z" transform="translate(-913.065 -610.51)" fill="#956134"/>
        <path id="Path_15" data-name="Path 15" d="M917.247,621a3.45,3.45,0,0,0-.1.374v.02c-.069-.316-.877-3.885-3.984-4.546h.02a1.9,1.9,0,0,0,.336-.088C916.034,617.461,916.97,620.035,917.247,621Z" transform="translate(-913.065 -612.026)" fill="#956134"/>
        <path id="Path_16" data-name="Path 16" d="M913.151,616.63a1.3,1.3,0,0,1,.336.1,1.876,1.876,0,0,1-.336.088h-.039c-.01,0-.03-.01-.03-.02a.034.034,0,0,1-.02-.01.083.083,0,0,1-.03-.059.1.1,0,0,1,.069-.089.037.037,0,0,1,.029-.01Z" transform="translate(-913.033 -611.994)" fill="#956134"/>
        <path id="Path_17" data-name="Path 17" d="M913.073,616.839a.033.033,0,0,0,.02.01C913.083,616.849,913.073,616.849,913.073,616.839Z" transform="translate(-913.043 -612.045)" fill="#956134"/>
        <path id="Path_18" data-name="Path 18" d="M913.033,616.712a.1.1,0,0,1,.069-.068.1.1,0,0,0-.069.089Z" transform="translate(-913.033 -611.997)" fill="#956134"/>
        <path id="Path_19" data-name="Path 19" d="M913.033,616.761a.083.083,0,0,0,.03.059c-.02-.01-.03-.02-.03-.039Z" transform="translate(-913.033 -612.026)" fill="#956134"/>
      </g>
    </g>
    <path id="Union_2" data-name="Union 2" d="M25.04,36.747a2.807,2.807,0,0,0,1.739-.385,3.283,3.283,0,0,0,1.336-2.51,11.22,11.22,0,0,0,.069-1.626,3.372,3.372,0,0,0-1.468-2.062H19.29v-.569h7.517a3.2,3.2,0,0,0,1.337-1.875c0-.734,0-1.551-.007-2.4a3.314,3.314,0,0,0-1.42-1.908H19.29v-.569H26.81a3.16,3.16,0,0,0,1.311-1.8c0-.144,0-.287,0-.427,0-.492,0-.954-.005-1.452a2.987,2.987,0,0,0-2.125-2.221h-6.7v-.569H31.606v.569h-.052v1.03c0,3.658.014,13.38.052,16.14a2.45,2.45,0,0,1-1.4,2.446,5.769,5.769,0,0,1-2.713.644A6.891,6.891,0,0,1,25.04,36.747Zm-14.385-1.01a3.2,3.2,0,0,0,.689-1.749l0-19.032H15.1v19l0,.033a3.254,3.254,0,0,0,.65,1.752ZM9.529,7.062H2.147C1.369,7.1.627,7.962,0,8.338V5.218c.621.391,1.363,1.226,2.147,1.264v.012H9.682C10.576,3.137,11,.569,11,.569H8.569V0h7.153V.569a55.922,55.922,0,0,1-1.675,5.925H32.559v.569H13.85c-2.172,6.174-6.3,14.524-12.777,14.524C5.267,19.864,8.011,12.577,9.529,7.062Zm23.032.012V6.493c.777-.033,1.52-.9,2.147-1.275v3.12C34.085,7.946,33.343,7.111,32.56,7.075Z" transform="translate(2.23 2)" fill="#956134"/>
    <path id="Union_1" data-name="Union 1" d="M25,35.228c.734-.312.641-.686.711-1.08h0V14.076h-3.1V27.408h.011a2.834,2.834,0,0,0,.747,1.878c-1.46,0-3.612-1.193-3.561-1.878V13.542h5.9v-4h0c-.062-.39-.007-.764-.711-1.079H28.52V9.53l0,.014v4h6.794v.533h-.038c0,2.949.01,10.623.038,12.848a2.321,2.321,0,0,1-1.155,2.232c-1.642.971-2.7.664-4.253-.84.344.109.565.171.782.249.371.132,1.034.386,1.3-.023.428-.659.3-4.223.3-5.146,0-2.362-.021-6.671-.029-9.319H28.518V34.148c.062.391.006.765.712,1.08ZM4.756,32.945a2.842,2.842,0,0,1-1.154-2.6c.029-2.766.036-10.075.038-18.309H6.662c0,7.121-.034,13.319-.028,14.971,0,1.019-.08,2.051.02,3.053A2.66,2.66,0,0,0,7.476,31.9a1.913,1.913,0,0,0,2.736-.382A7.031,7.031,0,0,0,11.2,29c.021-.085.256-1.327.311-1.683H9.867v-.533h3.674v.533h-.015A10.088,10.088,0,0,1,11.3,32.3a.136.136,0,0,1-.018.02c-.03.03-.06.061-.092.09a3.672,3.672,0,0,1-.721.571l-.1.06c-.055.031-.109.063-.165.092a3.906,3.906,0,0,1-.631.266,6.047,6.047,0,0,1-1.958.316A5.192,5.192,0,0,1,4.756,32.945Zm6.458-10.784h-2.7v-.533h2.011a1.969,1.969,0,0,0,.683-1.143l.006.025v-2.4a1.933,1.933,0,0,0-.574-.988H8.324v-.533h2.264a1.942,1.942,0,0,0,.626-1.013V13.791a1.645,1.645,0,0,0-1.007-1.22H8.246v-.534h5.362V22.161ZM19.926.533H17.6V0h5.918V.533H23.5c-.209,1-2.214,9.613-9.549,9.613C18.882,8.2,19.824,1.416,19.926.533ZM7.616,8.948,8.856,7.863l1.333,1.17-1.2,1.113ZM5.972.57H3.65V.036H9.567V.475h0V.57H9.549a16.635,16.635,0,0,1-1,3.058h3.03c.723-.043,1.414-.847,2-1.2V5.359c-.582-.368-1.279-1.152-2.013-1.186V4.162H8.305C7,6.881,4.508,10.111,0,10.111,4.927,8.181,5.869,1.449,5.972.57ZM33.127,5.832V5.288c.729-.031,1.427-.844,2.013-1.2V7.019C34.558,6.651,33.862,5.867,33.127,5.832ZM23.46,5.822V5.288h9.667v.533Z" transform="translate(70.383 3.701)" fill="#956134"/>
  </g>
</svg>
